<?xml version="1.0" encoding="UTF-8"?>
<svg width="300px" height="412px" viewBox="0 0 300 412" version="1.1" xmlns="http://www.w3.org/2000/svg" xmlns:xlink="http://www.w3.org/1999/xlink">
    <!-- Generator: Sketch 52.5 (67469) - http://www.bohemiancoding.com/sketch -->
    <title>backup2 copy</title>
    <desc>Created with Sketch.</desc>
    <g id="Page-1" stroke="none" stroke-width="1" fill="none" fill-rule="evenodd">
        <g id="backup2-copy" fill="#fff" fill-rule="nonzero">
            <g id="Group">
                <circle id="Oval" cx="150" cy="45" r="2"></circle>
                <path d="M2,2 L2,205 L298,205 L298,2 L2,2 Z M0,0 L300,0 L300,207 L0,207 L0,0 Z" id="Rectangle"></path>
                <path d="M73,2 L73,65 L226,65 L226,2 L73,2 Z M71,0 L228,0 L228,67 L71,67 L71,0 Z" id="Rectangle"></path>
                <path d="M116,2 L116,23 L183,23 L183,2 L116,2 Z M114,0 L185,0 L185,25 L114,25 L114,0 Z" id="Rectangle"></path>
                <path d="M122.077778,66.64301 L123.821748,65.6639443 C129.096554,75.0597419 139.02745,81 150,81 C161.031425,81 171.007476,74.9954627 176.25864,65.5198227 L178.007979,66.4892628 C172.407824,76.5946512 161.765857,83 150,83 C138.296967,83 127.703111,76.6631865 122.077778,66.64301 Z" id="Path"></path>
            </g>
            <g id="Group-Copy" transform="translate(150.000000, 308.500000) rotate(-180.000000) translate(-150.000000, -308.500000) translate(0.000000, 205.000000)">
                <circle id="Oval" cx="151" cy="45" r="2"></circle>
                <path d="M2,2 L2,205 L298,205 L298,2 L2,2 Z M-1.13686838e-13,1.13686838e-13 L300,1.13686838e-13 L300,207 L-1.13686838e-13,207 L-1.13686838e-13,1.13686838e-13 Z" id="Rectangle"></path>
                <path d="M74,2 L74,65 L227,65 L227,2 L74,2 Z M72,1.93267624e-12 L229,1.93267624e-12 L229,67 L72,67 L72,1.93267624e-12 Z" id="Rectangle"></path>
                <path d="M117,2 L117,23 L184,23 L184,2 L117,2 Z M115,0 L186,0 L186,25 L115,25 L115,0 Z" id="Rectangle"></path>
                <path d="M122.992452,66.4900413 L124.741764,65.5205525 C129.99305,74.9957886 139.968873,81 151,81 C161.985524,81 171.926382,75.0456058 177.196039,65.6322159 L178.941196,66.6091627 C173.321348,76.6481144 162.716878,83 151,83 C139.234461,83 128.592737,76.5949987 122.992452,66.4900413 Z" id="Path"></path>
            </g>
            <path d="M150,246 C127.90861,246 110,228.09139 110,206 C110,183.90861 127.90861,166 150,166 C172.09139,166 190,183.90861 190,206 C190,228.09139 172.09139,246 150,246 Z M150,244 C170.98682,244 188,226.98682 188,206 C188,185.01318 170.98682,168 150,168 C129.01318,168 112,185.01318 112,206 C112,226.98682 129.01318,244 150,244 Z" id="Oval"></path>
        </g>
    </g>
</svg>
